<?xml version="1.0" standalone="no"?>
<!DOCTYPE svg PUBLIC "-//W3C//DTD SVG 20010904//EN"
 "http://www.w3.org/TR/2001/REC-SVG-20010904/DTD/svg10.dtd">
<svg version="1.0" xmlns="http://www.w3.org/2000/svg"
 width="383.000000pt" height="251.000000pt" viewBox="0 0 383.000000 251.000000"
 preserveAspectRatio="xMidYMid meet">

<g transform="translate(0.000000,251.000000) scale(0.100000,-0.100000)"
fill="#000000" stroke="none">
<path d="M1925 1105 c-33 -14 -80 -27 -104 -30 -25 -3 -49 -9 -55 -13 -6 -5
-31 -14 -56 -21 -25 -7 -76 -26 -115 -42 -68 -28 -138 -40 -237 -40 -27 0 -48
-4 -48 -8 0 -6 -26 -13 -140 -35 -8 -2 -23 -6 -32 -10 -9 -4 -26 -2 -39 4 -18
10 -24 9 -31 -4 -5 -9 -16 -16 -25 -16 -9 0 -24 -7 -34 -16 -9 -8 -28 -16 -42
-18 -14 -1 -32 -7 -39 -13 -15 -11 -99 -38 -111 -35 -4 1 -24 -7 -44 -18 -21
-11 -48 -20 -60 -20 -12 0 -25 -5 -28 -10 -3 -6 -27 -19 -53 -30 -26 -12 -55
-25 -64 -30 -10 -6 -23 -10 -30 -10 -7 0 -25 -6 -40 -14 -32 -17 -107 -32
-198 -41 -36 -3 -105 -19 -155 -35 -50 -15 -102 -31 -117 -34 l-28 -6 0 -280
0 -280 1915 0 1915 0 0 370 0 370 -127 -6 c-142 -6 -208 -16 -300 -45 -34 -10
-78 -20 -97 -21 -19 -2 -32 -6 -29 -10 2 -5 -3 -8 -11 -8 -9 0 -16 4 -16 9 0
5 -24 12 -52 16 -29 4 -82 18 -118 30 -36 12 -80 26 -99 31 -18 5 -41 19 -49
32 l-15 23 99 0 c54 -1 255 0 446 2 190 1 344 -1 341 -5 -2 -5 3 -8 11 -8 9 0
16 7 16 15 0 8 -6 15 -12 15 -7 0 -31 9 -53 19 -80 39 -132 60 -171 67 -21 4
-55 17 -74 28 -62 38 -85 44 -201 51 -63 4 -132 14 -154 22 -28 10 -62 12
-115 8 -51 -5 -85 -3 -105 6 -19 8 -91 13 -205 14 -96 1 -200 8 -230 15 -30 7
-74 13 -98 15 -33 2 -51 10 -75 33 -29 28 -39 31 -102 33 -38 1 -89 -3 -113
-10 -27 -8 -48 -9 -55 -3 -29 23 -82 21 -142 -3z m1195 -465 c0 -5 -2 -10 -4
-10 -3 0 -8 5 -11 10 -3 6 -1 10 4 10 6 0 11 -4 11 -10z m67 -16 c-3 -3 -12
-4 -19 -1 -8 3 -5 6 6 6 11 1 17 -2 13 -5z"/>
</g>
</svg>
